<svg width="24" height="24" viewBox="0 0 24 24" fill="none" xmlns="http://www.w3.org/2000/svg">
<g opacity="0.3">
<path d="M19 12L19.7071 11.2929L20.4142 12L19.7071 12.7071L19 12ZM14.7071 6.29289L19.7071 11.2929L18.2929 12.7071L13.2929 7.70711L14.7071 6.29289ZM19.7071 12.7071L14.7071 17.7071L13.2929 16.2929L18.2929 11.2929L19.7071 12.7071ZM19 13L12.5 13V11L19 11L19 13Z" fill="#121212"/>
<path fill-rule="evenodd" clip-rule="evenodd" d="M11 11L7.5 11C6.94772 11 6.5 11.4477 6.5 12C6.5 12.5523 6.94771 13 7.5 13L11 13L11 18C11 19.1046 10.1046 20 9 20L5 20C3.89543 20 3 19.1046 3 18L3 6C3 4.89543 3.89543 4 5 4L9 4C10.1046 4 11 4.89543 11 6L11 11Z" fill="#121212"/>
</g>
</svg>
