<svg width="62" height="49" viewBox="0 0 62 49" fill="none" xmlns="http://www.w3.org/2000/svg">
<path fill-rule="evenodd" clip-rule="evenodd" d="M6 2H44.5619C46.32 2 47.8721 3.14801 48.3867 4.82914L51.1941 14H53.2857L50.2991 4.24371C49.5271 1.72201 47.1991 0 44.5619 0H6C2.68629 0 0 2.68629 0 6V43C0 46.3137 2.68629 49 6 49H55.8884C59.9217 49 62.8062 45.1003 61.6256 41.2437L59.102 33H57.0104L59.7132 41.8291C60.5003 44.4002 58.5772 47 55.8884 47H6C3.79086 47 2 45.2091 2 43V6C2 3.79086 3.79086 2 6 2Z" fill="#FF6A28"/>
</svg>
